<svg xmlns="http://www.w3.org/2000/svg" width="81" height="81" viewBox="0 0 81 81" fill="none"><g id="TINHIH logo Final Version 1" clip-path="url(#clip0_4_14)"><path id="Vector" d="M40.4549 81.0151C62.8266 81.0151 80.9624 62.8792 80.9624 40.5075C80.9624 18.1358 62.8266 0 40.4549 0C18.0832 0 -0.0526428 18.1358 -0.0526428 40.5075C-0.0526428 62.8792 18.0832 81.0151 40.4549 81.0151Z" fill="#EAC300"></path><path id="Vector_2" d="M40.4548 79.1493C61.7961 79.1493 79.0966 61.8488 79.0966 40.5075C79.0966 19.1663 61.7961 1.86574 40.4548 1.86574C19.1136 1.86574 1.81308 19.1663 1.81308 40.5075C1.81308 61.8488 19.1136 79.1493 40.4548 79.1493Z" fill="#FFDD00"></path><path id="Vector_3" d="M40.4548 69.4418C56.4348 69.4418 69.3891 56.4875 69.3891 40.5075C69.3891 24.5276 56.4348 11.5732 40.4548 11.5732C24.4749 11.5732 11.5205 24.5276 11.5205 40.5075C11.5205 56.4875 24.4749 69.4418 40.4548 69.4418Z" fill="black"></path><g id="Group"><path id="Vector_4" d="M37.0218 43.9607L31.7706 33.7517H27.5927V47.2634H30.6546V36.9967L35.8858 47.2634H40.0837V33.7517H37.0218V43.9607Z" fill="white"></path><path id="Vector_5" d="M48.3543 39.1558H43.6874V33.7517H40.6354V47.2634H43.6874V41.8291H48.3543V47.2634H51.3962V33.7517H48.3543V39.1558Z" fill="white"></path><path id="Vector_6" d="M63.4458 33.7517V39.1558H58.7764V33.7517H55.7245V47.2634H58.7764V41.8291H63.4458V47.2634H66.4852V33.7517H63.4458Z" fill="white"></path><g id="Group_2"><path id="Vector_7" d="M26.9883 36.944H23.9264V47.2634H26.9883V36.944Z" fill="white"></path><path id="Vector_8" d="M23.8085 36.4324H26.9883V33.7517H23.9264H14.427V36.4324H17.652V47.2634H20.7139V36.4324H23.8085Z" fill="white"></path></g></g><g id="Group_3"><g id="Group_4"><path id="Vector_9" d="M64.2533 18.151C65.3087 18.151 66.1642 17.2955 66.1642 16.2401C66.1642 15.1848 65.3087 14.3292 64.2533 14.3292C63.198 14.3292 62.3424 15.1848 62.3424 16.2401C62.3424 17.2955 63.198 18.151 64.2533 18.151Z" fill="black"></path><path id="Vector_10" d="M64.8352 66.3473C65.8905 66.3473 66.746 65.4918 66.746 64.4364C66.746 63.381 65.8905 62.5255 64.8352 62.5255C63.7798 62.5255 62.9243 63.381 62.9243 64.4364C62.9243 65.4918 63.7798 66.3473 64.8352 66.3473Z" fill="black"></path><path id="Vector_11" d="M16.2978 66.2069C17.3532 66.2069 18.2087 65.3513 18.2087 64.296C18.2087 63.2406 17.3532 62.3851 16.2978 62.3851C15.2425 62.3851 14.3869 63.2406 14.3869 64.296C14.3869 65.3513 15.2425 66.2069 16.2978 66.2069Z" fill="black"></path><path id="Vector_12" d="M17.4714 17.4639C18.5268 17.4639 19.3823 16.6084 19.3823 15.553C19.3823 14.4977 18.5268 13.6421 17.4714 13.6421C16.4161 13.6421 15.5605 14.4977 15.5605 15.553C15.5605 16.6084 16.4161 17.4639 17.4714 17.4639Z" fill="black"></path></g><g id="Group_5"><path id="Vector_13" d="M24.3853 7.83168L25.8398 7.17465C26.0705 7.06933 26.2736 7.04174 26.4466 7.08939C26.6197 7.13704 26.7727 7.24487 26.9005 7.41539C27.0309 7.58341 27.1614 7.81663 27.2943 8.11004C27.4146 8.37837 27.4748 8.60406 27.4723 8.78462C27.4723 8.96769 27.3971 9.12567 27.2516 9.26109C27.4071 9.22598 27.545 9.25106 27.6604 9.33632C27.7757 9.42159 27.8786 9.55951 27.9663 9.75512L28.7638 11.5507L27.8384 11.9694L27.0034 10.1187C26.9432 9.98583 26.8805 9.9131 26.8128 9.90056C26.7451 9.88803 26.6422 9.9106 26.5068 9.97329L27.4823 12.1325L26.5244 12.5638L24.3878 7.83419L24.3853 7.83168ZM26.3664 9.04543C26.4993 8.98524 26.4993 8.81221 26.3714 8.52632C26.3162 8.40094 26.2661 8.31066 26.2285 8.25298C26.1909 8.1953 26.1507 8.1627 26.1106 8.15016C26.0705 8.14013 26.0228 8.14765 25.9677 8.17273L25.747 8.27304L26.1432 9.14824L26.3689 9.04543H26.3664Z" fill="black"></path><path id="Vector_14" d="M30.0829 11.0566L28.513 6.11137L30.4941 5.48193L30.7976 6.43738L29.8246 6.74583L30.1305 7.7088L31.0634 7.41289L31.3593 8.34577L30.4264 8.64168L30.7876 9.77518L31.8232 9.44666L32.1292 10.4071L30.0854 11.0566H30.0829Z" fill="black"></path><path id="Vector_15" d="M33.6639 9.71499C33.3956 9.5244 33.2226 9.22598 33.1448 8.81722L32.6959 6.46747C32.5981 5.96091 32.6257 5.55967 32.7787 5.26375C32.9317 4.96784 33.2226 4.77976 33.6539 4.69701C34.0301 4.62428 34.3511 4.66942 34.6194 4.83242C34.8877 4.99543 35.0607 5.26877 35.1335 5.65747L35.3015 6.53518L34.2859 6.72827L34.1429 5.97595C34.1153 5.8305 34.0777 5.7327 34.0326 5.68255C33.9874 5.63239 33.9197 5.61735 33.832 5.6349C33.7417 5.65245 33.684 5.69509 33.6639 5.7653C33.6414 5.83552 33.6439 5.93081 33.6664 6.05369L34.1554 8.61159C34.1805 8.747 34.2207 8.83979 34.2708 8.89496C34.321 8.95013 34.3862 8.96769 34.4664 8.95264C34.6244 8.92255 34.6796 8.77961 34.6294 8.52131L34.4539 7.60097L35.4795 7.40536L35.6626 8.36583C35.8256 9.22097 35.4795 9.73004 34.6194 9.89304C34.2482 9.96326 33.9272 9.90558 33.6589 9.71499H33.6639Z" fill="black"></path><path id="Vector_16" d="M37.4782 9.08555C37.245 8.84481 37.1146 8.49122 37.0845 8.02979L36.9265 5.56468C36.8989 5.11831 36.9842 4.77475 37.1873 4.534C37.3904 4.29326 37.6989 4.16035 38.1177 4.13276C38.5365 4.10518 38.86 4.20047 39.0932 4.41363C39.3239 4.62679 39.4543 4.95781 39.4844 5.40168L39.6424 7.86679C39.6725 8.33323 39.5872 8.69936 39.3866 8.96769C39.186 9.23351 38.8775 9.38146 38.4587 9.40905C38.0399 9.43663 37.7139 9.3288 37.4807 9.08806L37.4782 9.08555ZM38.5741 8.3232C38.6017 8.24044 38.6092 8.12759 38.6017 7.98215L38.4387 5.44933C38.4311 5.33648 38.4111 5.2462 38.376 5.17849C38.3409 5.11078 38.2782 5.07818 38.1854 5.08571C38.0123 5.09574 37.9346 5.23366 37.9522 5.49447L38.1127 8.01976C38.1227 8.16772 38.1478 8.28057 38.1879 8.35329C38.228 8.42602 38.2982 8.46112 38.3935 8.45611C38.4863 8.45109 38.5465 8.40595 38.5716 8.3232H38.5741Z" fill="black"></path><path id="Vector_17" d="M41.611 9.30874L41.2875 4.08512L42.2755 4.1453L42.441 7.69626L42.9927 4.19044L43.9808 4.25063L43.0278 9.39651L41.611 9.31125V9.30874Z" fill="black"></path><path id="Vector_18" d="M44.9488 9.60716L45.8666 4.49889L47.9129 4.86753L47.7349 5.85558L46.7293 5.67502L46.5512 6.66809L47.5142 6.84112L47.3411 7.8041L46.3782 7.63106L46.1675 8.80218L47.2383 8.99527L47.0603 9.98834L44.9488 9.60967V9.60716Z" fill="black"></path><path id="Vector_19" d="M49.8689 5.32896L51.3937 5.79289C51.6369 5.86561 51.8074 5.97846 51.9077 6.12893C52.008 6.27939 52.0507 6.45995 52.0356 6.67311C52.0206 6.88626 51.9679 7.14456 51.8751 7.45301C51.7899 7.73388 51.6871 7.94202 51.5642 8.07744C51.4438 8.21286 51.2833 8.28558 51.0827 8.2906C51.2231 8.36583 51.3084 8.47617 51.341 8.6166C51.3711 8.75704 51.356 8.92756 51.2958 9.1332L50.7141 11.009L49.7436 10.7131L50.3329 8.77208C50.3755 8.63416 50.3755 8.53636 50.3329 8.48119C50.2902 8.42602 50.1975 8.37586 50.0545 8.33323L49.3649 10.6002L48.3593 10.2943L49.8689 5.32896ZM50.5586 7.5458C50.6965 7.58843 50.8119 7.45803 50.9046 7.1571C50.9448 7.0267 50.9673 6.92639 50.9774 6.85617C50.9849 6.78846 50.9774 6.7358 50.9548 6.70069C50.9322 6.66558 50.8921 6.6405 50.8344 6.62295L50.6037 6.55273L50.3254 7.47057L50.5611 7.54329L50.5586 7.5458Z" fill="black"></path><path id="Vector_20" d="M52.6074 11.7613L53.2971 10.1965L53.944 6.67812L54.8844 7.0919L54.4406 8.81722L55.4161 7.32512L56.3565 7.73889L54.1948 10.5877L53.5052 12.1525L52.6099 11.7588L52.6074 11.7613Z" fill="black"></path><path id="Vector_21" d="M67.4332 24.7589L72.2606 22.7878L73.0781 24.3451L68.7146 27.1964L68.2557 26.3238L68.9654 25.8699L68.672 25.3131L67.8996 25.6492L67.4307 24.7564L67.4332 24.7589ZM69.4419 24.9997L69.66 25.416L71.8894 23.984L71.8668 23.9414L69.4394 24.9972L69.4419 24.9997Z" fill="black"></path><path id="Vector_22" d="M69.3641 28.6585L74.0661 26.3965L74.4072 27.3519L71.4205 28.7212L74.6028 27.8961L74.9263 28.8064L71.9346 30.1656L75.1119 29.3305L75.4554 30.2985L70.3748 31.5022L69.9585 30.3286L72.228 29.2453L69.7879 29.8496L69.3641 28.6534V28.6585Z" fill="black"></path><path id="Vector_23" d="M70.7885 33.0269L75.9745 32.4953L76.3206 34.2181L71.3302 35.7278L71.1371 34.7623L71.9471 34.5266L71.8242 33.9097L70.9891 34.015L70.791 33.0269H70.7885ZM72.6493 33.8244L72.742 34.2858L75.2849 33.541L75.2749 33.4934L72.6493 33.8244Z" fill="black"></path><path id="Vector_24" d="M76.6742 36.6381L76.7895 38.228C76.8071 38.4813 76.7645 38.6819 76.6617 38.8273C76.5563 38.9753 76.4033 39.0781 76.2002 39.1433C75.9971 39.206 75.7338 39.2512 75.4128 39.2737C75.1194 39.2963 74.8887 39.2737 74.7182 39.2085C74.5476 39.1433 74.4222 39.0204 74.3445 38.8349C74.3244 38.9929 74.2542 39.1132 74.1338 39.1935C74.0135 39.2737 73.848 39.3214 73.6348 39.3364L71.6763 39.4668L71.601 38.4537L73.6248 38.3057C73.7702 38.2957 73.8605 38.2606 73.8956 38.2004C73.9307 38.1402 73.9433 38.0374 73.9332 37.8894L71.5709 38.0625L71.4932 37.0142L76.6692 36.6356L76.6742 36.6381ZM74.8536 38.08C74.8636 38.2255 75.0266 38.2857 75.3401 38.2631C75.4755 38.2531 75.5783 38.2405 75.646 38.223C75.7137 38.2054 75.7589 38.1803 75.7839 38.1477C75.8065 38.1126 75.8165 38.0675 75.814 38.0073L75.7965 37.7666L74.8385 37.8368L74.8561 38.0851L74.8536 38.08Z" fill="black"></path><path id="Vector_25" d="M71.6838 40.8862L76.8673 41.1219L76.772 43.1983L75.7714 43.1532L75.819 42.1325L74.8109 42.0874L74.7658 43.0654L73.7878 43.0203L73.8329 42.0423L72.6442 41.9871L72.5941 43.0729L71.586 43.0278L71.6838 40.8862Z" fill="black"></path><path id="Vector_26" d="M71.4531 44.3544L76.5714 45.207L76.3958 46.2628L73.868 46.3255L76.3181 46.7342L76.1526 47.7223L71.0343 46.8697L71.1998 45.8691L73.848 45.7838L71.285 45.3575L71.4531 44.3569V44.3544Z" fill="black"></path><path id="Vector_27" d="M70.6957 48.2765L75.6761 49.7335L75.0943 51.7272L74.1313 51.4463L74.4172 50.4658L73.4492 50.1824L73.1759 51.1228L72.2355 50.8495L72.5088 49.9091L71.3653 49.5755L71.0594 50.6187L70.0914 50.3354L70.6932 48.2765H70.6957Z" fill="black"></path><path id="Vector_28" d="M69.843 51.9127C70.1389 51.8099 70.5276 51.8601 71.0066 52.0632L71.4731 52.2613L71.0743 53.2017L70.48 52.9509C70.2417 52.8506 70.0913 52.8757 70.0261 53.0287C69.991 53.1139 69.991 53.1842 70.0261 53.2393C70.0612 53.2945 70.1389 53.3472 70.2593 53.3973C70.4148 53.4625 70.5527 53.5001 70.6706 53.5051C70.7884 53.5102 70.8938 53.5001 70.9865 53.4725C71.0793 53.445 71.2298 53.3848 71.4379 53.2995L72.0248 53.0613C72.4711 52.8732 72.8824 52.8607 73.2611 53.0212C73.6698 53.1942 73.9407 53.4174 74.0736 53.6957C74.2065 53.9716 74.199 54.2926 74.046 54.6512C73.8654 55.0825 73.6197 55.3433 73.3112 55.4361C73.0028 55.5289 72.6065 55.4737 72.12 55.2681L72.5313 54.2951L72.8623 54.428C72.925 54.4556 72.9827 54.4581 73.0354 54.438C73.088 54.418 73.1256 54.3778 73.1532 54.3151C73.1858 54.2399 73.1883 54.1772 73.1633 54.1221C73.1382 54.0669 73.0905 54.0243 73.0203 53.9967C72.8648 53.9315 72.6667 53.9515 72.4235 54.0594L71.6536 54.3904C71.4731 54.4656 71.3075 54.5233 71.1571 54.5609C71.0066 54.5985 70.8461 54.6111 70.6706 54.5985C70.495 54.586 70.3019 54.5333 70.0888 54.4455C69.6173 54.2474 69.2963 54.0092 69.1283 53.7334C68.9603 53.4575 68.9578 53.1215 69.1258 52.7252C69.3089 52.2914 69.5496 52.0231 69.8455 51.9203L69.843 51.9127Z" fill="black"></path><path id="Vector_29" d="M68.2532 55.3734C68.5591 55.3082 68.9378 55.4035 69.3892 55.6618L69.8305 55.9151L69.324 56.8003L68.7622 56.4793C68.5391 56.3514 68.3861 56.359 68.3033 56.5019C68.2582 56.5821 68.2482 56.6524 68.2782 56.71C68.3083 56.7677 68.3786 56.8304 68.4889 56.8931C68.6369 56.9784 68.7673 57.0285 68.8826 57.0486C68.998 57.0686 69.1058 57.0712 69.2011 57.0536C69.2964 57.036 69.4519 56.9959 69.6701 56.9357L70.2794 56.7702C70.7459 56.6373 71.1571 56.6749 71.5132 56.8781C71.8969 57.0987 72.1402 57.3545 72.2405 57.6454C72.3408 57.9363 72.2931 58.2523 72.1001 58.5908C71.8668 58.9971 71.5935 59.2253 71.275 59.2805C70.959 59.3356 70.5703 59.2328 70.1139 58.9695L70.6405 58.0517L70.9515 58.2247C71.0117 58.2598 71.0669 58.2699 71.122 58.2548C71.1772 58.2423 71.2198 58.2047 71.2549 58.147C71.2951 58.0768 71.3051 58.0141 71.2875 57.9564C71.27 57.8987 71.2274 57.8511 71.1596 57.8134C71.0117 57.7282 70.8136 57.7257 70.5603 57.8034L69.7578 58.0391C69.5697 58.0943 69.3992 58.1294 69.2462 58.1495C69.0933 58.1695 68.9303 58.162 68.7572 58.1269C68.5842 58.0918 68.3986 58.0191 68.198 57.9037C67.7541 57.6479 67.4632 57.3746 67.3278 57.0812C67.1924 56.7878 67.2325 56.4543 67.4457 56.0806C67.6789 55.6718 67.9497 55.4336 68.2582 55.3684L68.2532 55.3734Z" fill="black"></path><path id="Vector_30" d="M60.0529 71.2023L58.8717 71.8994C58.5156 72.1101 58.1921 72.1452 57.9037 72.0073C57.6154 71.8693 57.3395 71.5759 57.0762 71.132C56.8129 70.6882 56.6825 70.3145 56.685 70.0086C56.685 69.7026 56.863 69.4468 57.2116 69.2412L57.5752 69.0255L56.5295 67.2576L57.4072 66.7385L60.0504 71.2048L60.0529 71.2023ZM58.0016 69.8606C57.8937 69.9233 57.826 69.991 57.8009 70.0612C57.7733 70.1315 57.7759 70.2067 57.8034 70.2919C57.831 70.3747 57.8862 70.4876 57.969 70.6255C58.0793 70.8136 58.1796 70.9339 58.2724 70.9941C58.3627 71.0518 58.4705 71.0443 58.5959 70.9716L58.6937 70.9139L58.0542 69.833L58.0016 69.8631V69.8606Z" fill="black"></path><path id="Vector_31" d="M56.1408 73.3715L54.6788 74.0109C54.4456 74.1138 54.2424 74.1388 54.0694 74.0887C53.8964 74.0385 53.7459 73.9282 53.618 73.7577C53.4901 73.5871 53.3622 73.3539 53.2318 73.058C53.114 72.7897 53.0563 72.564 53.0613 72.3809C53.0663 72.2003 53.1416 72.0399 53.2895 71.9044C53.1315 71.937 52.9961 71.912 52.8833 71.8242C52.7679 71.7389 52.6676 71.596 52.5823 71.4029L51.8074 69.5998L52.7378 69.1936L53.5503 71.0518C53.608 71.1847 53.6707 71.2574 53.7384 71.2725C53.8061 71.2875 53.9089 71.265 54.0443 71.2048L53.0939 69.0356L54.0569 68.6143L56.1383 73.369L56.1408 73.3715ZM54.1747 72.1351C54.0418 72.1928 54.0393 72.3659 54.1647 72.6542C54.2199 72.7796 54.2675 72.8724 54.3051 72.9301C54.3428 72.9878 54.3829 73.0229 54.423 73.0329C54.4631 73.0429 54.5108 73.0379 54.5659 73.0129L54.7866 72.9151L54.4004 72.0348L54.1747 72.1351Z" fill="black"></path><path id="Vector_32" d="M50.4758 70.0813L51.9855 75.0466L49.9969 75.651L49.706 74.6905L50.6815 74.3921L50.3881 73.4266L49.4527 73.7125L49.1668 72.7771L50.1022 72.4913L49.7561 71.3527L48.7154 71.6687L48.422 70.7032L50.4733 70.0788L50.4758 70.0813Z" fill="black"></path><path id="Vector_33" d="M46.6591 71.107L48.2088 76.1074L47.2333 76.2829L46.2327 72.8724L46.5261 76.4108L45.5506 76.5864L45.2622 71.3602L46.6591 71.1095V71.107Z" fill="black"></path><path id="Vector_34" d="M43.3488 71.6035L43.6598 76.7845L41.5859 76.9099L41.5257 75.9093L42.5438 75.8491L42.4836 74.841L41.5056 74.8987L41.448 73.9206L42.426 73.863L42.3558 72.6743L41.2699 72.7395L41.2097 71.7314L43.3513 71.6035H43.3488Z" fill="black"></path><path id="Vector_35" d="M39.8706 71.7414L39.5571 76.9224L38.4888 76.8572L38.1628 74.3495L38.0124 76.8271L37.0118 76.7669L37.3252 71.586L38.3384 71.6486L38.6995 74.2717L38.8575 71.6787L39.8706 71.7389V71.7414Z" fill="black"></path><path id="Vector_36" d="M35.447 71.3151L34.7022 75.4403L35.309 75.5507L35.131 76.5312L32.8966 76.1275L33.0746 75.1469L33.6815 75.2573L34.4263 71.132L35.4495 71.3176L35.447 71.3151Z" fill="black"></path><path id="Vector_37" d="M32.5981 70.7107L31.2089 75.7112L30.2434 75.4428L31.6327 70.4424L32.5981 70.7107Z" fill="black"></path><path id="Vector_38" d="M29.8772 70.2368C29.9876 70.5528 29.9575 70.9289 29.7895 71.3603L28.8917 73.6624C28.7287 74.0786 28.5055 74.3545 28.2196 74.4874C27.9337 74.6203 27.5977 74.6103 27.2065 74.4598C26.8153 74.3069 26.562 74.0862 26.4416 73.7953C26.3213 73.5044 26.3438 73.1508 26.5043 72.7345L27.4021 70.4324C27.5726 69.9986 27.8033 69.7001 28.0993 69.5447C28.3952 69.3867 28.7362 69.3842 29.1274 69.5371C29.5186 69.6901 29.7669 69.9233 29.8772 70.2418V70.2368ZM28.5632 70.4675C28.503 70.5302 28.4478 70.6305 28.3952 70.7659L27.4723 73.1307C27.4322 73.236 27.4121 73.3263 27.4146 73.4016C27.4171 73.4793 27.4623 73.5345 27.5476 73.5671C27.708 73.6298 27.8359 73.5395 27.9312 73.2962L28.8516 70.939C28.9067 70.801 28.9293 70.6882 28.9243 70.6029C28.9193 70.5177 28.8691 70.4575 28.7814 70.4249C28.6961 70.3923 28.6234 70.4073 28.5632 70.47V70.4675Z" fill="black"></path><path id="Vector_39" d="M26.6473 68.5215L24.1696 73.0806L23.2292 72.569L23.9966 70.159L22.8104 72.3408L21.9302 71.8618L24.4079 67.3027L25.3006 67.7867L24.5157 70.317L25.757 68.035L26.6498 68.519L26.6473 68.5215Z" fill="black"></path><path id="Vector_40" d="M13.0628 55.4612L9.34888 57.4072L9.63477 57.9539L8.75204 58.4153L7.69879 56.4041L8.58152 55.9427L8.8674 56.4894L12.5814 54.5434L13.0628 55.4637V55.4612Z" fill="black"></path><path id="Vector_41" d="M6.91887 54.6963L6.3446 53.2092C6.25432 52.971 6.23677 52.7679 6.29445 52.5974C6.35212 52.4268 6.46748 52.2814 6.64553 52.161C6.82107 52.0406 7.05931 51.9228 7.36024 51.8074C7.63358 51.7021 7.86178 51.6544 8.04485 51.667C8.22541 51.6795 8.38089 51.7623 8.50878 51.9152C8.4812 51.7573 8.5138 51.6218 8.60658 51.5115C8.69686 51.4012 8.84231 51.3059 9.04293 51.2306L10.8786 50.536L11.2447 51.4839L9.35138 52.2137C9.21596 52.2663 9.14073 52.3265 9.12318 52.3917C9.10562 52.4594 9.12318 52.5622 9.17835 52.7002L11.3877 51.8475L11.7663 52.8281L6.92389 54.6938L6.91887 54.6963ZM8.24296 52.7879C8.1903 52.6525 8.01726 52.6425 7.72637 52.7553C7.59847 52.803 7.50569 52.8481 7.4455 52.8832C7.38531 52.9183 7.35021 52.956 7.33767 52.9961C7.32513 53.0362 7.33014 53.0838 7.3502 53.139L7.43798 53.3647L8.33324 53.0186L8.24296 52.7879Z" fill="black"></path><path id="Vector_42" d="M10.4573 49.1818L5.42928 50.4658L4.91519 48.4521L5.88569 48.2038L6.13897 49.1918L7.11699 48.9411L6.87374 47.9931L7.82166 47.7499L8.06491 48.6978L9.21847 48.4044L8.95015 47.3512L9.92816 47.1004L10.4598 49.1793L10.4573 49.1818Z" fill="black"></path><path id="Vector_43" d="M9.68492 45.9268L4.47384 46.1048L4.24564 44.3619L9.32632 43.1958L9.45421 44.1713L8.63167 44.3519L8.71443 44.9738L9.55452 44.9237L9.68492 45.9242V45.9268ZM7.88186 45.0064L7.82167 44.54L5.23369 45.1117L5.24121 45.1594L7.88437 45.0064H7.88186Z" fill="black"></path><path id="Vector_44" d="M9.25359 41.4479L5.06065 41.5031L5.06818 42.12L4.0726 42.1325L4.04251 39.8605L5.03808 39.848L5.04561 40.4649L9.23855 40.4097L9.25109 41.4479H9.25359Z" fill="black"></path><path id="Vector_45" d="M9.24107 38.5314L4.09518 37.8644L4.29831 36.2945L7.49317 36.2695L4.40865 35.4319L4.61429 33.8495L9.76017 34.5165L9.63729 35.4569L5.92834 34.9755L9.55955 36.0488L9.43918 36.9716L5.64998 37.1196L9.35893 37.6011L9.23856 38.5289L9.24107 38.5314Z" fill="black"></path><path id="Vector_46" d="M10.1137 33.1398L5.11331 31.7505L5.67003 29.7493L6.63551 30.0177L6.36217 31.0007L7.33517 31.2715L7.59597 30.3286L8.53889 30.5919L8.27557 31.5348L9.42161 31.8533L9.71251 30.8051L10.6855 31.0759L10.1112 33.1423L10.1137 33.1398Z" fill="black"></path><path id="Vector_47" d="M11.1168 29.802L6.31702 27.8284L6.72327 26.8403L9.20092 27.3444L6.90383 26.399L7.285 25.4711L12.0848 27.4447L11.6986 28.3826L9.0981 27.8735L11.5005 28.8616L11.1143 29.7995L11.1168 29.802Z" fill="black"></path><path id="Vector_48" d="M12.95 25.757L9.2862 23.7182L8.98527 24.2574L8.11508 23.7734L9.22099 21.7898L10.0912 22.2738L9.79025 22.8129L13.4541 24.8517L12.9475 25.7595L12.95 25.757Z" fill="black"></path></g></g><path id="Subtract" fill-rule="evenodd" clip-rule="evenodd" d="M52.0607 33.7517H55.1226V36.44H52.0607V33.7517ZM52.0607 37V47.2659H55.1226V37H52.0607Z" fill="white"></path></g><defs><clipPath id="clip0_4_14"><rect width="81" height="81" fill="white"></rect></clipPath></defs></svg>